<svg width="19" height="19" viewBox="0 0 19 19" fill="none" xmlns="http://www.w3.org/2000/svg">
<path d="M15.9103 4.11279C15.5379 3.74019 15.0957 3.44461 14.609 3.24295C14.1223 3.04129 13.6007 2.9375 13.0739 2.9375C12.547 2.9375 12.0254 3.04129 11.5387 3.24295C11.052 3.44461 10.6098 3.74019 10.2374 4.11279L9.46448 4.88571L8.69157 4.11279C7.93929 3.36051 6.91899 2.93789 5.85511 2.93789C4.79123 2.93789 3.77093 3.36051 3.01865 4.11279C2.26637 4.86507 1.84375 5.88537 1.84375 6.94925C1.84375 8.01313 2.26637 9.03343 3.01865 9.78571L3.79157 10.5586L9.46448 16.2315L15.1374 10.5586L15.9103 9.78571C16.2829 9.41328 16.5785 8.97109 16.7802 8.4844C16.9818 7.99771 17.0856 7.47606 17.0856 6.94925C17.0856 6.42243 16.9818 5.90078 16.7802 5.41409C16.5785 4.9274 16.2829 4.48522 15.9103 4.11279Z" stroke="#D3D3D3" stroke-width="1.2" stroke-linecap="round" stroke-linejoin="round"/>
</svg>
