<svg width="60" height="60" viewBox="0 0 60 60" fill="none" xmlns="http://www.w3.org/2000/svg">
<rect width="60" height="60" fill="white"/>
<path d="M22.5868 27C22.3868 27 22.2001 26.9466 22.0267 26.8266L16.1067 22.8266C15.8401 22.64 15.6667 22.3333 15.6667 22.0133C15.6667 21.68 15.8134 21.3733 16.0801 21.1866L23.4934 15.8533C23.8401 15.6133 24.2934 15.6 24.6401 15.84L30.5601 19.84C30.8268 20.0266 31.0001 20.3333 31.0001 20.6533C31.0001 20.9866 30.8534 21.2933 30.5868 21.4799L23.1734 26.8133C23.0001 26.9333 22.8001 27 22.5868 27ZM18.4134 21.9733L22.5734 24.7866L28.2534 20.6933L24.0934 17.88L18.4134 21.9733Z" fill="#C7C7C7"/>
<path d="M37.4134 27C37.2134 27 37 26.9333 36.8267 26.8133L29.4134 21.48C29.1467 21.2933 28.9867 20.9733 29 20.6533C29 20.32 29.1734 20.0267 29.44 19.84L35.36 15.84C35.7067 15.6133 36.16 15.6133 36.5067 15.8533L43.92 21.1867C44.1867 21.3733 44.3467 21.6933 44.3334 22.0133C44.3334 22.3467 44.1601 22.64 43.8934 22.8266L37.9734 26.8266C37.8001 26.9466 37.6 27 37.4134 27ZM31.7467 20.6933L37.4267 24.7866L41.5867 21.9733L35.9067 17.88L31.7467 20.6933Z" fill="#C7C7C7"/>
<path d="M24.0801 37.6667C23.8801 37.6667 23.6668 37.6 23.4934 37.48L16.0801 32.1467C15.8135 31.96 15.6535 31.6401 15.6668 31.3201C15.6668 30.9867 15.8401 30.6934 16.1068 30.5067L22.0268 26.5067C22.3734 26.2801 22.8268 26.2801 23.1735 26.5201L30.5868 31.8534C30.8535 32.0401 31.0135 32.3601 31.0001 32.6801C31.0001 33.0134 30.8268 33.3067 30.5601 33.4934L24.6401 37.4934C24.4668 37.6134 24.2668 37.6667 24.0801 37.6667ZM18.4135 31.3601L24.0935 35.4534L28.2535 32.6401L22.5734 28.5467L18.4135 31.3601Z" fill="#C7C7C7"/>
<path d="M35.92 37.6667C35.72 37.6667 35.5333 37.6134 35.36 37.4934L29.44 33.4934C29.1733 33.3067 29 33.0001 29 32.6801C29 32.3467 29.1467 32.0401 29.4133 31.8534L36.8267 26.5201C37.16 26.2801 37.6267 26.2667 37.9733 26.5067L43.8934 30.5067C44.16 30.6934 44.3333 31 44.3333 31.32C44.3333 31.6534 44.1867 31.96 43.92 32.1467L36.5067 37.48C36.3333 37.6 36.1333 37.6667 35.92 37.6667ZM31.7467 32.6401L35.9067 35.4534L41.5867 31.36L37.4267 28.5467L31.7467 32.6401Z" fill="#C7C7C7"/>
<path d="M30.0001 44.2001C29.6667 44.2001 29.3334 44.1334 29.0267 43.9867L20.2534 39.9334C19.8934 39.7734 19.6667 39.4134 19.6667 39.0267V34.6667C19.6667 34.1201 20.1201 33.6667 20.6667 33.6667C21.2134 33.6667 21.6667 34.1201 21.6667 34.6667V38.3868L29.8667 42.1734C29.9601 42.2134 30.0534 42.2134 30.1467 42.1734L38.3468 38.3868V34.6667C38.3468 34.1201 38.8001 33.6667 39.3468 33.6667C39.8934 33.6667 40.3468 34.1201 40.3468 34.6667V39.0267C40.3468 39.4134 40.1201 39.7734 39.7601 39.9334L30.9867 43.9867C30.6667 44.1334 30.3334 44.2001 30.0001 44.2001Z" fill="#C7C7C7"/>
</svg>
